<svg id="ad14406b-a89b-426c-a4c6-7aa5ebda2c21" data-name="图层 1" xmlns="http://www.w3.org/2000/svg" viewBox="0 0 1003.09 1003.09"><defs><style>.a9b7aca8-effd-4384-82f9-62893dc71792{fill:#edf1fe;}.aa3fb59f-9904-4164-9294-37fee8711e15{fill:#4f39f6;fill-rule:evenodd;}</style></defs><rect class="a9b7aca8-effd-4384-82f9-62893dc71792" x="142.98" y="141.09" width="730" height="730"/><path class="aa3fb59f-9904-4164-9294-37fee8711e15" d="M155.75,10.91h891.64a55.73,55.73,0,0,1,55.72,55.73V958.27a55.73,55.73,0,0,1-55.72,55.73H155.75A55.73,55.73,0,0,1,100,958.27V66.64a55.73,55.73,0,0,1,55.73-55.73m379,702.16V846.82H668.44V713.07Zm-267.5,0V846.82H401V713.07Zm535,0V846.82H935.93V713.07Zm0-535V311.84H935.93V178.09Zm-535,267.49V579.33H401V445.58Zm0-267.49V311.84H401V178.09ZM401,579.33V713.07H534.7V579.33Zm0-267.49V445.58H534.7V311.84ZM668.44,579.33V713.07H802.19V579.33Zm0-267.49V445.58H802.19V311.84ZM534.7,178.09V311.84H668.44V178.09Zm0,267.49V579.33H668.44V445.58Zm267.49,0V579.33H935.93V445.58Z" transform="translate(-100.02 -10.91)"/></svg>